<svg width="80" height="40" viewBox="0 0 80 40" xmlns="http://www.w3.org/2000/svg">
  <!-- First element - L shape (tall vertical line with horizontal base) -->
  <g transform="translate(8, 5)">
    <rect x="0" y="0" width="3" height="30" fill="black"/>
    <rect x="0" y="27" width="12" height="3" fill="black"/>
  </g>
  
  <!-- Second element - D shape (rectangular outline open at top with internal line) -->
  <g transform="translate(30, 5)">
    <rect x="0" y="0" width="3" height="30" fill="black"/>
    <rect x="0" y="27" width="15" height="3" fill="black"/>
    <rect x="12" y="0" width="3" height="30" fill="black"/>
    <rect x="0" y="20" width="12" height="3" fill="black"/>
  </g>
  
  <!-- Third element - stylized 3 with diagonal cut -->
  <g transform="translate(55, 5)">
    <!-- Top curve of 3 -->
    <path d="M 0 10 Q 8 10 16 10 Q 24 10 24 18 Q 24 26 16 26 Q 8 26 0 26" stroke="black" stroke-width="3" fill="none"/>
    <!-- Bottom curve of 3 (partially closed) -->
    <path d="M 0 26 Q 8 26 16 26 Q 24 26 24 32 Q 24 36 16 36 Q 8 36 0 36" stroke="black" stroke-width="3" fill="none"/>
    <!-- Diagonal cut across bottom curve -->
    <line x1="24" y1="32" x2="4" y2="36" stroke="black" stroke-width="3"/>
    <!-- Vertical line on right side -->
    <rect x="21" y="10" width="3" height="26" fill="black"/>
  </g>
</svg> 